<?xml version="1.0" encoding="UTF-8"?>
<!--Generator: Apple Native CoreSVG 341-->
<!DOCTYPE svg
PUBLIC "-//W3C//DTD SVG 1.1//EN"
       "http://www.w3.org/Graphics/SVG/1.1/DTD/svg11.dtd">
<svg version="1.1" xmlns="http://www.w3.org/2000/svg" xmlns:xlink="http://www.w3.org/1999/xlink" viewBox="0 0 76.0498 75.7568">
 <g>
  <rect height="75.7568" opacity="0" width="76.0498" x="0" y="0"/>
  <path d="M35.9375 63.0129L35.9375 67.3582C21.1826 66.4341 9.33738 54.6099 8.37774 39.8437L12.723 39.8437C13.6723 52.2351 23.5564 62.0988 35.9375 63.0129ZM39.8193 67.3571L39.8193 63.0119C52.2106 62.0876 62.085 52.2281 63.0338 39.8437L67.3791 39.8437C66.4199 54.6027 54.5849 66.4226 39.8193 67.3571ZM67.3851 35.9619L63.0398 35.9619C62.1478 23.5417 52.2499 13.6233 39.8193 12.6961L39.8193 8.35085C54.6245 9.28801 66.4835 21.168 67.3851 35.9619ZM35.9375 12.6951C23.5171 13.6121 13.6095 23.5347 12.717 35.9619L8.37169 35.9619C9.27377 21.1608 21.143 9.27646 35.9375 8.34976Z" fill="white" fill-opacity="0.85"/>
  <path d="M37.8662 25.0977C38.9648 25.0977 39.8193 24.2188 39.8193 23.1445L39.8193 2.00195C39.8193 0.90332 38.9648 0.0488281 37.8662 0.0488281C36.7676 0.0488281 35.9375 0.90332 35.9375 2.00195L35.9375 23.1445C35.9375 24.2188 36.7676 25.0977 37.8662 25.0977ZM1.95312 39.8438L23.0957 39.8438C24.1943 39.8438 25.0732 38.9893 25.0732 37.915C25.0732 36.792 24.1943 35.9619 23.0957 35.9619L1.95312 35.9619C0.878906 35.9619 0 36.792 0 37.915C0 38.9893 0.878906 39.8438 1.95312 39.8438ZM37.8662 75.7568C38.9648 75.7568 39.8193 74.8779 39.8193 73.8037L39.8193 52.6611C39.8193 51.5625 38.9648 50.708 37.8662 50.708C36.7676 50.708 35.9375 51.5625 35.9375 52.6611L35.9375 73.8037C35.9375 74.8779 36.7676 75.7568 37.8662 75.7568ZM52.6123 39.8438L73.7549 39.8438C74.8535 39.8438 75.708 38.9893 75.708 37.915C75.708 36.792 74.8535 35.9619 73.7549 35.9619L52.6123 35.9619C51.5381 35.9619 50.6592 36.792 50.6592 37.915C50.6592 38.9893 51.5381 39.8438 52.6123 39.8438Z" fill="white" fill-opacity="0.85"/>
 </g>
</svg>
